<?xml version="1.0" encoding="UTF-8"?>
<svg width="23px" height="22px" viewBox="0 0 23 22" version="1.1" xmlns="http://www.w3.org/2000/svg" xmlns:xlink="http://www.w3.org/1999/xlink">
    <!-- Generator: Sketch 60.1 (88133) - https://sketch.com -->
    <title>xcx_icon_r</title>
    <desc>Created with Sketch.</desc>
    <g id="官网-PC" stroke="none" stroke-width="1" fill="none" fill-rule="evenodd">
        <g id="首页" transform="translate(-1477.000000, -28.000000)" fill="#DB3C3A" fill-rule="nonzero">
            <g id="导航条">
                <g id="小程序-(1)" transform="translate(1478.000000, 27.000000)">
                    <g id="小程序" transform="translate(0.000000, 1.000000)">
                        <path d="M11,0 L11,0 C17.0751368,0 22,4.92486328 22,11 C22,17.0751367 17.0751368,22 11,22 L11,22 C4.92486317,22 0,17.0751367 0,11 C0,4.92486328 4.92486317,0 11,0 L11,0 Z M11.0000007,1.57142949 L11.0000003,1.57142949 C5.79274653,1.57142949 1.57143217,5.79274395 1.57143217,10.9999979 C1.57143217,16.2072518 5.79274653,20.4285662 11.0000003,20.4285662 L11.0000006,20.4285662 C16.2072544,20.4285662 20.4285687,16.2072518 20.4285687,10.9999979 C20.4285687,5.79274395 16.2072544,1.57142949 11.0000006,1.57142949 L11.0000007,1.57142949 Z M13.5614323,5.04271756 C15.3937186,5.04271756 16.8834322,6.53401074 16.8834322,8.36629277 C16.8834322,9.65643594 16.1275754,10.8412928 14.9552891,11.3834295 L14.9552891,11.3834295 C14.5636505,11.5662368 14.0979723,11.3969463 13.9151639,11.0053088 C13.9145834,11.004065 13.9140061,11.0028197 13.913432,11.0015728 L13.913432,11.0015728 C13.7334795,10.6125745 13.8984819,10.1511267 14.2842889,9.96442961 L14.2968603,9.95971534 L14.2968604,9.9597153 C15.177434,9.55430085 15.5626252,8.51179948 15.1572086,7.63121725 C14.7517941,6.75064362 13.7092928,6.36545241 12.8287106,6.77086901 C12.2152286,7.0533155 11.8182102,7.66269401 11.8077065,8.33799089 L11.8077065,8.36627657 L11.8029922,8.43384794 L11.8029922,13.6038479 L11.7935637,13.6038479 L11.7935637,13.6651336 L11.7935636,13.6651566 C11.7909525,15.499383 10.3041959,16.9854164 8.46997385,16.9871351 L8.46997381,16.9871351 C6.63513518,16.9854025 5.14814576,15.4984033 5.14640553,13.6635668 C5.14640553,12.3718531 5.903835,11.1869984 7.07611916,10.64643 L7.07611919,10.64643 C7.47937231,10.486151 7.93620531,10.6831202 8.09648304,11.0863742 C8.24248075,11.4536968 8.0928687,11.8722941 7.74711703,12.0638595 L7.73611703,12.0701452 L7.73611684,12.0701453 C6.85548951,12.4754438 6.47016081,13.5178914 6.87545924,14.3985145 C7.28075767,15.2791418 8.3232053,15.6644705 9.20382833,15.2591721 C9.82674628,14.9724803 10.225681,14.3492938 10.2252556,13.6635684 C10.2252556,13.6242827 10.2268271,13.584997 10.2331128,13.5457113 L10.2331128,8.42757461 L10.2362556,8.42757461 L10.2362556,8.36471756 C10.2362556,6.55128806 11.6976851,5.07258084 13.5048239,5.04271756 L13.5598239,5.04271756 L13.5614323,5.04271756 Z" id="xcx_icon_r"></path>
                    </g>
                </g>
            </g>
        </g>
    </g>
</svg>